<?xml version="1.0" encoding="utf-8"?>
<!-- Generator: Adobe Illustrator 27.0.0, SVG Export Plug-In . SVG Version: 6.00 Build 0)  -->
<svg version="1.1" id="Layer_1" xmlns="http://www.w3.org/2000/svg" xmlns:xlink="http://www.w3.org/1999/xlink" x="0px" y="0px"
	 viewBox="0 0 200 57.1" style="enable-background:new 0 0 200 57.1;" xml:space="preserve">
<g>
	<path d="M33,35.7c0,5.1-0.1,10.3,0,15.4c0,1.6-0.6,2.1-2.1,2.1c-5.4,0.1-5.4,0.1-5.4-5.2c0-7.7,0.1-15.5,0.1-23.2
		c0-1.1-0.3-1.6-1.5-1.6c-3,0-6,0.1-9,0c-1.4,0-1.7,0.7-1.7,1.9c0,8.5,0,17.1,0.1,25.6c0,1.9-0.7,2.5-2.4,2.5c-6-0.1-5,0.5-5-4.8
		c0-7.4,0-14.8,0-22.2c0-1.8-0.2-3.2-2.6-3c-0.4,0-1.1-0.7-1.2-1.2c-0.2-0.8-0.2-1.8,0-2.6c0.2-0.6,1-1.5,1.6-1.5
		C6,18,6.3,17.2,6.3,15.5c-0.1-4,0.8-7.8,4.6-9.9c4.1-2.2,8.6-3,13.3-2.2c0.6,0.1,1.6,1.3,1.6,2.1c0.1,4.2,0.6,3.6-3.5,3.7
		c-2,0.1-4.1,0.3-6,1c-2.2,0.7-3.7,5.4-2.4,7.2c0.3,0.4,1.2,0.5,1.8,0.5c5,0,10,0.1,15,0c1.9,0,2.4,0.7,2.4,2.4
		C33,25.4,33,30.5,33,35.7z"/>
	<path d="M50.2,22.8c2.7-5.1,7.1-6.6,12-6c4.7,0.6,9.7,2.5,10.8,8.5c0.4,2,0.9,4,0.9,6.1c0.1,6.5,0,13.1,0.1,19.6
		c0,1.6-0.5,2.1-2.1,2.1c-6.5-0.1-5.4,0.8-5.4-5.3c-0.1-4.9,0.1-9.9,0-14.8c-0.1-2.2-0.4-4.4-0.8-6.5c-0.6-3.1-5.6-4.7-8.2-4
		c-3.8,1-5.7,3.7-6.8,7.3c-1.4,4.4-0.6,8.9-0.8,13.3c-0.1,2.7-0.1,5.3,0,8c0,1.5-0.4,2-1.9,2C41.4,53,42.6,54,42.5,48
		c-0.1-9.3,0-18.6-0.1-27.8c0-1.7,0.5-2.4,2.1-2.2c0.2,0,0.4,0,0.6,0c1.4,0.1,3.1-0.3,4,0.4c0.7,0.5,0.4,2.4,0.6,3.7
		C49.8,22.2,50,22.4,50.2,22.8z"/>
	<path d="M130.1,27.6c0-0.7-0.2-1.4,0-2c1.4-4.4,5.3-7.7,9.9-7.8c2.6-0.1,5.4,0.1,7.9,0.9c3.4,1.1,4.8,4.1,5,7.5
		c0.2,4.3,0.1,8.7,0.2,13c0.1,4.4,0.2,8.7,0.4,13.6c-0.5-0.5-1.2-0.8-1.3-1.3c-0.3-1.1-0.2-2.2-0.4-3.4c-0.2-1-0.5-1.9-0.7-2.9
		c-0.1-0.8,0-1.6,0.1-2.3c0.2-2.4,0.5-4.9,0.5-7.3c0-0.5-0.8-1.4-1.2-1.4c-6.1-0.3-12.1,0.4-17.3,3.9c-2.9,1.9-3.9,4.9-3.2,8.3
		c0.5,2.5,2.1,4.4,4.5,5.2c6.1,2,11.6,0.3,15.3-5.2c0.2-0.3,0.4-0.6,0.7-0.9c0.2,0.1,0.3,0.2,0.5,0.3c-0.5,1-0.9,2.1-1.6,3
		c-3.5,4.6-10.7,6.6-16.4,3.6c-5.4-2.8-6.2-10.3-1.6-14.4c2.6-2.4,5.8-3.5,9.1-4.2c3.2-0.6,6.4-0.6,9.7-1c0.6-0.1,1.6-0.8,1.6-1.1
		c-0.1-2.6-0.1-5.4-0.8-7.9c-0.8-3.1-3.8-4.9-7-4.9s-6.6-0.4-9.2,2.1c-1.1,1.1-2,2.4-2.8,3.7c-0.5,0.9-0.8,1.9-1.2,2.8
		C130.5,27.7,130.3,27.7,130.1,27.6z"/>
	<path d="M83.6,5.1c0.3,10.4,0.3,20.8,0.3,31.8c1-0.7,1.6-1,2.1-1.5c5.6-5.1,11.2-10.3,16.8-15.4c0.7-0.6,1.5-1.1,2.3-1.6
		c0.2,0.2,0.3,0.4,0.5,0.6c-0.7,0.7-1.4,1.5-2.1,2.2c-4.6,4.2-9.2,8.4-13.8,12.5c-1.3,1.1-1.2,1.9,0,3c5,4.8,10,9.6,15,14.4
		c0.4,0.4,0.9,0.9,1.3,1.4c-0.1,0.2-0.3,0.4-0.4,0.6c-0.7-0.4-1.5-0.8-2-1.3c-4.8-4.6-9.5-9.2-14.3-13.7c-0.7-0.7-2-1.7-2.5-1.4
		c-1.4,0.7-2.9,1.7-2.8,3.8c0,3.5,0,6.9,0,10.4c0,0.7-0.1,1.3-0.3,2.3C82.5,51.5,82.4,6.6,83.6,5.1z"/>
	<path d="M159.5,19.6c0.8-0.5,1.2-0.8,1.5-0.8c2.4,0.3,2.5-1.1,2.5-2.9c0-2.6,0.1-5.2,0.4-7.8c0.4-2.9,3.3-5.1,6.2-4.8
		c0.7,0.1,1.3,0.5,2,0.8c0,0.2-0.1,0.4-0.1,0.6c-0.5,0-1.1,0.1-1.6,0.1c-3.5-0.1-5.5,1.8-5.5,5.3c0,2.4,0,4.8,0,7.2
		c0,1.2,0.5,1.5,1.6,1.5c1.7,0,3.5,0,5.2,0c0,0.3,0,0.6,0.1,0.8c-0.5,0.1-1,0.3-1.5,0.3c-1.3,0-2.7,0-4,0c-1.1,0-1.5,0.5-1.5,1.6
		c0.1,9.9,0.2,19.7,0.2,29.6c0,0.5-0.5,1-0.8,1.5c-0.2-0.5-0.7-1.1-0.7-1.6c0-6.8,0-13.6,0-20.4c0-2.7-0.1-5.5,0-8.2
		c0.1-1.8-0.3-2.7-2.3-2.5C160.9,20,160.5,19.8,159.5,19.6z"/>
	<path d="M175.3,19.7c0.3-0.4,0.3-0.4,0.4-0.4c1.1-0.3,2.6-0.3,3.1-1s0.1-2.2,0.1-3.3c0-0.6-0.1-1.2,0-1.8c0.1-0.4,0.5-0.7,0.7-1
		c0.3,0.3,0.8,0.6,0.8,1c0.1,1.3,0.1,2.5,0,3.8c0,1.5,0.6,2.2,2.2,2.2c1.3-0.1,2.6,0,3.9,0c0,0.2,0.1,0.4,0.1,0.6
		c-0.3,0.1-0.7,0.4-1,0.4c-1.2,0.1-2.4,0-3.6,0c-1.1,0-1.5,0.5-1.5,1.6c0,8.7,0,17.3,0.1,26c0,3.2,1.4,5,4.6,4.5
		c0.6-0.1,1.2,0.2,1.8,0.4c-4.9,1.2-6.6,1.1-7.8-4.1c-0.2-1-0.2-2.1-0.2-3.2c0-7.5-0.1-15.1,0-22.6c0-1.8-0.2-3-2.4-2.7
		C176.2,20,175.8,19.8,175.3,19.7z"/>
	<path d="M114,18.9c0.1,1.5,0.2,2.9,0.3,4.9c0.6-0.6,1.2-0.9,1.4-1.3c1.5-3.4,4.6-4.7,7.6-5c0.4,0,0.8,0.5,1.5,0.9
		c-1.9,0.5-3.5,0.6-4.8,1.2c-3.3,1.7-5,4.8-5.2,8.4c-0.4,7.5-0.4,15.1-0.6,22.6c0,0.7-0.2,1.4-0.3,2.1c-0.2,0-0.4,0-0.6-0.1
		c0-11.3,0-22.5,0-33.8C113.5,18.9,113.8,18.9,114,18.9z"/>
	<path d="M194.4,54c-1.3,0-3.5-2-3.5-3.2c-0.1-1.4,1.9-3,3.6-3c1.8,0,3.2,1.3,3.3,2.9C197.7,52.2,196,54,194.4,54z"/>
</g>
</svg>
